<svg width="37" height="37" viewBox="0 0 37 37" fill="none" xmlns="http://www.w3.org/2000/svg">
<path d="M3.08398 29.2917V26.2083H18.5007V29.2917H3.08398ZM3.08398 21.5833V18.5H10.7923V21.5833H3.08398ZM3.08398 13.875V10.7917H10.7923V13.875H3.08398ZM31.759 29.2917L25.8236 23.3563C25.2069 23.7931 24.5322 24.1209 23.7994 24.3398C23.0666 24.5588 22.3281 24.6677 21.584 24.6667C19.4513 24.6667 17.6332 23.9148 16.1296 22.4112C14.6259 20.9076 13.8746 19.0899 13.8757 16.9583C13.8757 14.8257 14.6275 13.0076 16.1311 11.5039C17.6347 10.0003 19.4524 9.24897 21.584 9.25C23.7166 9.25 25.5348 10.0018 27.0384 11.5055C28.542 13.0091 29.2933 14.8267 29.2923 16.9583C29.2923 17.7035 29.1829 18.4424 28.9639 19.1753C28.745 19.9081 28.4177 20.5823 27.9819 21.1979L33.9173 27.1333L31.759 29.2917ZM21.584 21.5833C22.8687 21.5833 23.9607 21.1337 24.86 20.2344C25.7593 19.3351 26.209 18.2431 26.209 16.9583C26.209 15.6736 25.7593 14.5816 24.86 13.6823C23.9607 12.783 22.8687 12.3333 21.584 12.3333C20.2993 12.3333 19.2072 12.783 18.3079 13.6823C17.4086 14.5816 16.959 15.6736 16.959 16.9583C16.959 18.2431 17.4086 19.3351 18.3079 20.2344C19.2072 21.1337 20.2993 21.5833 21.584 21.5833Z" fill="url(#paint0_linear_1_322)"/>
<defs>
<linearGradient id="paint0_linear_1_322" x1="18.5007" y1="9.25" x2="18.5007" y2="29.2917" gradientUnits="userSpaceOnUse">
<stop stop-color="#3C033D"/>
<stop offset="1" stop-color="#B50505"/>
</linearGradient>
</defs>
</svg>
